<svg width="34" height="34" viewBox="0 0 34 34" fill="none" xmlns="http://www.w3.org/2000/svg">
<path d="M14.8568 29.4549C11.0911 33.2452 4.69185 34.5005 1 30.7102C5.92247 25.6154 1 23.1542 4.69185 19.4623C5.34011 18.7402 6.1288 18.1579 7.00974 17.7509C7.89068 17.3439 8.84535 17.1208 9.81542 17.0953C10.7855 17.0698 11.7506 17.2423 12.6517 17.6024C13.5528 17.9625 14.371 18.5025 15.0564 19.1895C15.7417 19.8766 16.2798 20.6961 16.6377 21.5981C16.9955 22.5001 17.1657 23.4656 17.1378 24.4356C17.1099 25.4056 16.8845 26.3597 16.4754 27.2397C16.0663 28.1196 15.482 28.9069 14.7583 29.5534L14.8568 29.4549Z" stroke="white" stroke-linecap="round" stroke-linejoin="round"/>
<path d="M31.5685 2.43056C31.0912 1.95628 30.5216 1.5849 29.8951 1.33937C29.2686 1.09384 28.5984 0.979377 27.9259 1.00305C27.2538 1.02131 26.5926 1.17706 25.9831 1.46067C25.3735 1.74428 24.8285 2.14975 24.3817 2.65207L11.1403 17.4195C12.5602 17.7007 13.8584 18.4142 14.8567 19.4623C15.7547 20.3566 16.4073 21.467 16.7519 22.6865L31.347 9.61737C31.8464 9.17336 32.2501 8.63232 32.5336 8.02723C32.8171 7.42214 32.9744 6.76567 32.996 6.0978C33.0231 5.42122 32.9103 4.74633 32.6647 4.11532C32.4191 3.48432 32.0459 2.91078 31.5685 2.43056Z" stroke="white" stroke-linecap="round" stroke-linejoin="round"/>
</svg>
