<svg width="36" height="36" viewBox="0 0 36 36" fill="none" xmlns="http://www.w3.org/2000/svg">
<path d="M31.4737 23.8947V11.2631L20.9474 5.34229M15.0526 5.34229L4.52631 11.2631V23.8947M7.05262 27.8425L18 34L24.7368 30.2105L28.9474 27.8417M18 12.9473L20.5263 14.421L23.0526 15.8947V21.7894L20.5263 23.2631L18 24.7368L15.4737 23.2631L12.9474 21.7894V15.8947L15.4737 14.421L18 12.9473ZM18 12.9473V7.0526M23.0526 21.3684L28.9474 24.7368M12.9474 21.3684L7.05262 24.7368" stroke="#ECECEC" stroke-width="4" stroke-linecap="round" stroke-linejoin="round"/>
<path d="M18 7.05263C19.3953 7.05263 20.5263 5.92156 20.5263 4.52632C20.5263 3.13107 19.3953 2 18 2C16.6048 2 15.4737 3.13107 15.4737 4.52632C15.4737 5.92156 16.6048 7.05263 18 7.05263Z" stroke="#ECECEC" stroke-width="4" stroke-linecap="round" stroke-linejoin="round"/>
<path d="M4.52632 28.9473C5.92156 28.9473 7.05263 27.8163 7.05263 26.421C7.05263 25.0258 5.92156 23.8947 4.52632 23.8947C3.13107 23.8947 2 25.0258 2 26.421C2 27.8163 3.13107 28.9473 4.52632 28.9473Z" stroke="#ECECEC" stroke-width="4" stroke-linecap="round" stroke-linejoin="round"/>
<path d="M31.4737 28.9473C32.8689 28.9473 34 27.8163 34 26.421C34 25.0258 32.8689 23.8947 31.4737 23.8947C30.0784 23.8947 28.9474 25.0258 28.9474 26.421C28.9474 27.8163 30.0784 28.9473 31.4737 28.9473Z" stroke="#ECECEC" stroke-width="4" stroke-linecap="round" stroke-linejoin="round"/>
</svg>
