<svg width="32" height="32" viewBox="0 0 32 32" fill="none" xmlns="http://www.w3.org/2000/svg">
<path d="M19.6591 0.160363C19.3837 0.000377066 19.0571 -0.0419636 18.7511 0.042638C18.445 0.12724 18.1844 0.331868 18.0266 0.611589L18.0256 0.613758L13.7875 8.07634L13.2753 7.84965C12.0112 7.28438 10.5897 7.19785 9.26824 7.60572C7.94676 8.01359 6.81258 8.8889 6.07097 10.0732L6.0635 10.0852L6.05603 10.0982L6.05389 10.0971L0.505525 19.5121L0.50019 19.5197V19.5284H0.498056C0.00473963 20.4004 -0.128632 21.4355 0.127137 22.4072C0.382907 23.379 1.00698 24.2081 1.86274 24.7131C2.5224 25.1086 3.28718 25.2846 4.05008 25.2164L3.98819 25.3271L3.98713 25.3281C3.7674 25.714 3.63407 26.1443 3.59661 26.5885L3.19115 30.3231V30.3318C3.12393 31.2136 4.09596 31.77 4.80338 31.2754L4.81405 31.2689L7.75042 29.0106C8.05558 28.7915 8.32126 28.5117 8.52399 28.1928V28.2036C8.52406 29.0038 8.77286 29.7835 9.23483 30.4314C9.69681 31.0792 10.3483 31.5622 11.0964 31.8112C11.8445 32.0601 12.6508 32.0625 13.4002 31.8178C14.1497 31.5732 14.8039 31.0941 15.2695 30.4489C15.405 30.5791 15.5491 30.7027 15.7017 30.8177C16.8113 31.6507 18.2614 32 19.7381 32H29.5971C30.1848 32 30.7519 31.7799 31.1901 31.3817C31.6282 30.9835 31.9067 30.4352 31.9723 29.8415H31.9979V27.7242H32V18.114C31.9997 17.5171 31.8273 16.9334 31.5042 16.4351C31.181 15.9368 30.7213 15.5456 30.1818 15.3101L18.7117 10.249L22.6435 3.32111L22.6457 3.31786C22.803 3.0379 22.8447 2.70588 22.7615 2.39473C22.6782 2.08357 22.4769 1.81871 22.2018 1.6583L22.1986 1.65722L19.6645 0.162532L19.6591 0.160363ZM12.7151 9.9626L9.88121 14.9521C9.32096 15.2267 8.85696 15.6692 8.55173 16.2201L5.12881 22.2422C4.98674 22.4909 4.78322 22.6974 4.53841 22.8415C4.29361 22.9855 4.01603 23.062 3.73318 23.0633C3.45488 23.0648 3.18134 22.9899 2.94147 22.8464L2.9372 22.8442C2.7526 22.7383 2.59053 22.5962 2.46041 22.426C2.33029 22.2559 2.23471 22.0612 2.17922 21.8532C2.12373 21.6453 2.10944 21.4281 2.13717 21.2145C2.1649 21.0009 2.2341 20.7949 2.34075 20.6087L7.86779 11.2306C8.33623 10.4837 9.0523 9.93207 9.88631 9.67559C10.7203 9.41911 11.6171 9.47475 12.4142 9.83244H12.4185L12.7151 9.9626ZM15.0337 16.731L17.6404 12.1374L29.3357 17.3004L29.3325 17.2961C29.4909 17.3634 29.6261 17.4769 29.721 17.6223C29.816 17.7677 29.8664 17.9384 29.866 18.1129V18.9741H29.8639V27.6732H23.6646C23.3926 27.6732 23.1269 27.6515 22.8665 27.6125L22.1805 27.4595C21.1432 27.155 20.2346 26.5091 19.5973 25.6232C18.7437 24.4365 17.1752 24.1372 15.9545 24.8259L15.9535 24.827C15.2172 25.2446 14.3466 25.7382 13.6616 26.1286L12.474 26.8011L12.4623 26.8087C11.9713 27.0958 11.3883 27.1732 10.8412 27.0239C10.2942 26.8747 9.82769 26.511 9.54403 26.0126C9.26213 25.5131 9.18649 24.9204 9.33369 24.3643C9.48089 23.8083 9.83893 23.3342 10.3293 23.046L14.8374 20.3994C15.0307 20.3299 15.2002 20.2053 15.3257 20.0404C15.4511 19.8756 15.5272 19.6775 15.5448 19.4698C15.6539 18.5249 15.4755 17.5697 15.0337 16.731ZM4.82578 26.0364L7.58397 27.67C7.4584 27.848 7.30441 28.0035 7.12836 28.1299L7.12089 28.1353L5.50439 29.3783L4.43633 28.746L4.65827 26.7024V26.6905C4.67961 26.4584 4.73616 26.2371 4.82578 26.0364ZM19.6175 6.48295L16.8433 4.86461L17.8847 3.02934L20.6536 4.65635L19.6175 6.48295Z" fill="#ECECEC"/>
</svg>
